<svg width="45" height="45" viewBox="0 0 45 45" fill="none" xmlns="http://www.w3.org/2000/svg">
<path d="M2.1084 38.6729C1.71957 38.6729 1.40527 38.3586 1.40527 37.9697C1.40527 34.4801 4.24379 31.6416 7.7334 31.6416C8.12223 31.6416 8.43652 31.9559 8.43652 32.3447C8.43652 32.7336 8.12223 33.0479 7.7334 33.0479C5.02004 33.0479 2.81152 35.2564 2.81152 37.9697C2.81152 38.3586 2.49723 38.6729 2.1084 38.6729V38.6729Z" fill="white"/>
<path d="M11.9521 33.0486L7.7334 33.0479C7.34457 33.0479 7.03027 32.7329 7.03027 32.3447C7.03027 31.9559 7.34527 31.6416 7.7334 31.6416L11.9521 31.6423C12.341 31.6423 12.6553 31.9573 12.6553 32.3454C12.6553 32.7343 12.3403 33.0486 11.9521 33.0486Z" fill="white"/>
<path d="M24.7181 33.0483L21.7959 33.0469C21.4071 33.0469 21.0928 32.7319 21.0928 32.3438C21.0928 31.9549 21.4078 31.6406 21.7959 31.6406L24.7181 31.642C25.1069 31.642 25.4212 31.957 25.4212 32.3452C25.4212 32.734 25.1062 33.0483 24.7181 33.0483Z" fill="white"/>
<path d="M2.1098 43.5935C1.72168 43.5935 1.40668 43.2792 1.40668 42.8904L1.40527 37.9692C1.40527 37.5811 1.71957 37.2661 2.1084 37.2661C2.49652 37.2661 2.81152 37.5804 2.81152 37.9692L2.81293 42.8904C2.81293 43.2785 2.49863 43.5935 2.1098 43.5935Z" fill="white"/>
<path d="M11.9521 33.0482C11.5633 33.0482 11.249 32.7339 11.249 32.345V28.3154C11.249 27.9266 11.5633 27.6123 11.9521 27.6123C12.341 27.6123 12.6553 27.9266 12.6553 28.3154V32.345C12.6553 32.7339 12.341 33.0482 11.9521 33.0482Z" fill="white"/>
<path d="M21.7959 33.0468C21.4071 33.0468 21.0928 32.7325 21.0928 32.3436V28.3154C21.0928 27.9266 21.4071 27.6123 21.7959 27.6123C22.1847 27.6123 22.499 27.9266 22.499 28.3154V32.3436C22.499 32.7325 22.1847 33.0468 21.7959 33.0468Z" fill="white"/>
<path d="M16.874 30.2349C10.6711 30.2349 5.62402 25.1878 5.62402 18.9849C5.62402 18.596 5.93832 18.2817 6.32715 18.2817C6.71598 18.2817 7.03027 18.596 7.03027 18.9849C7.03027 24.413 11.4459 28.8286 16.874 28.8286C22.3021 28.8286 26.7178 24.413 26.7178 18.9849C26.7178 18.596 27.0321 18.2817 27.4209 18.2817C27.8097 18.2817 28.124 18.596 28.124 18.9849C28.124 25.1878 23.077 30.2349 16.874 30.2349V30.2349Z" fill="white"/>
<path d="M6.32715 19.6882C5.93832 19.6882 5.62402 19.3739 5.62402 18.9851V11.25C5.62402 10.8612 5.93832 10.5469 6.32715 10.5469C6.71598 10.5469 7.03027 10.8612 7.03027 11.25V18.9851C7.03027 19.3739 6.71598 19.6882 6.32715 19.6882V19.6882Z" fill="white"/>
<path d="M27.4209 19.6883C27.0321 19.6883 26.7178 19.374 26.7178 18.9851V10.5483C26.7178 10.1595 27.0321 9.84521 27.4209 9.84521C27.8097 9.84521 28.124 10.1595 28.124 10.5483V18.9851C28.124 19.374 27.8097 19.6883 27.4209 19.6883Z" fill="white"/>
<path d="M27.4209 11.2515C27.0321 11.2515 26.7178 10.9372 26.7178 10.5483C26.7178 8.2217 24.8257 6.32959 22.499 6.32959C22.1102 6.32959 21.7959 6.01529 21.7959 5.62646C21.7959 5.23764 22.1102 4.92334 22.499 4.92334C25.6005 4.92334 28.124 7.44686 28.124 10.5483C28.124 10.9372 27.8097 11.2515 27.4209 11.2515Z" fill="white"/>
<path d="M22.499 6.32953C22.1102 6.32953 21.7959 6.01523 21.7959 5.62641V2.10937C21.7959 1.72055 22.1102 1.40625 22.499 1.40625C22.8879 1.40625 23.2021 1.72055 23.2021 2.10937V5.62641C23.2021 6.01523 22.8879 6.32953 22.499 6.32953V6.32953Z" fill="white"/>
<path d="M22.499 2.8125H15.4678C15.0789 2.8125 14.7646 2.4982 14.7646 2.10938C14.7646 1.72055 15.0789 1.40625 15.4678 1.40625H22.499C22.8879 1.40625 23.2022 1.72055 23.2022 2.10938C23.2022 2.4982 22.8879 2.8125 22.499 2.8125V2.8125Z" fill="white"/>
<path d="M6.32715 11.9531C5.93832 11.9531 5.62402 11.6388 5.62402 11.25C5.62402 5.82188 10.0396 1.40625 15.4678 1.40625C15.8566 1.40625 16.1709 1.72055 16.1709 2.10938C16.1709 2.4982 15.8566 2.8125 15.4678 2.8125C10.8152 2.8125 7.03027 6.59742 7.03027 11.25C7.03027 11.6388 6.71598 11.9531 6.32715 11.9531V11.9531Z" fill="white"/>
<path d="M27.4211 15.4689C27.2411 15.4689 27.0611 15.4 26.924 15.2629L24.1115 12.4504C23.8365 12.1755 23.8365 11.7311 24.1115 11.4562C24.3864 11.1813 24.8308 11.1813 25.1057 11.4562L27.9182 14.2687C28.1931 14.5436 28.1931 14.988 27.9182 15.2629C27.7811 15.4 27.6011 15.4689 27.4211 15.4689Z" fill="white"/>
<path d="M16.874 14.7656C12.5104 14.7656 8.92802 12.6457 8.77755 12.5557C8.44497 12.356 8.33739 11.925 8.53638 11.5917C8.73536 11.2598 9.16497 11.1495 9.50036 11.3491C9.53481 11.3702 12.9112 13.3594 16.874 13.3594C20.8368 13.3594 24.2133 11.3702 24.247 11.3498C24.5831 11.1502 25.012 11.2605 25.211 11.5924C25.41 11.9257 25.3024 12.3567 24.9698 12.5564C24.82 12.6457 21.2376 14.7656 16.874 14.7656V14.7656Z" fill="white"/>
<path d="M6.32732 15.4689C6.14732 15.4689 5.96732 15.4 5.83021 15.2629C5.55529 14.988 5.55529 14.5436 5.83021 14.2687L8.64271 11.4562C8.91764 11.1813 9.36201 11.1813 9.63693 11.4562C9.91186 11.7311 9.91186 12.1755 9.63693 12.4504L6.82443 15.2629C6.68732 15.4 6.50732 15.4689 6.32732 15.4689V15.4689Z" fill="white"/>
<path d="M14.061 34.4533C13.9274 34.4533 13.7917 34.4146 13.6715 34.3352L11.5621 32.9303C11.2394 32.7152 11.1515 32.2785 11.3674 31.9551C11.5825 31.6316 12.0178 31.5452 12.3426 31.7603L14.452 33.1652C14.7747 33.3803 14.8626 33.8169 14.6467 34.1404C14.5117 34.3436 14.2881 34.4533 14.061 34.4533V34.4533Z" fill="white"/>
<path d="M14.0612 34.4533C13.7462 34.4533 13.46 34.2402 13.3798 33.9203C13.2849 33.5435 13.5141 33.1624 13.8917 33.0681L16.7042 32.3657C17.0797 32.2708 17.4622 32.4993 17.5564 32.8776C17.6513 33.2545 17.4221 33.6356 17.0445 33.7298L14.232 34.4322C14.1751 34.4463 14.1174 34.4533 14.0612 34.4533Z" fill="white"/>
<path d="M19.6874 34.4533C19.4603 34.4533 19.2367 34.3436 19.1017 34.1404C18.8859 33.8169 18.9738 33.3803 19.2965 33.1652L21.4059 31.7603C21.7293 31.5452 22.1653 31.6316 22.3811 31.9551C22.597 32.2785 22.5091 32.7152 22.1864 32.9303L20.077 34.3352C19.9567 34.4146 19.821 34.4533 19.6874 34.4533V34.4533Z" fill="white"/>
<path d="M19.6873 34.4532C19.631 34.4532 19.5734 34.4461 19.5164 34.4321L16.7039 33.7297C16.3271 33.6354 16.0978 33.2543 16.1921 32.8775C16.2856 32.5013 16.6667 32.2707 17.0442 32.3656L19.8567 33.068C20.2336 33.1622 20.4628 33.5433 20.3686 33.9202C20.2885 34.2394 20.0023 34.4532 19.6873 34.4532Z" fill="white"/>
<path d="M16.8951 37.2656C16.5063 37.2656 16.1885 36.9513 16.1885 36.5625C16.1885 36.1737 16.4993 35.8594 16.8874 35.8594H16.8951C17.2832 35.8594 17.5982 36.1737 17.5982 36.5625C17.5982 36.9513 17.2832 37.2656 16.8951 37.2656Z" fill="white"/>
<path d="M16.8951 41.4849C16.5063 41.4849 16.1885 41.1706 16.1885 40.7817C16.1885 40.3929 16.4993 40.0786 16.8874 40.0786H16.8951C17.2832 40.0786 17.5982 40.3929 17.5982 40.7817C17.5982 41.1706 17.2832 41.4849 16.8951 41.4849Z" fill="white"/>
<path d="M33.752 43.5936C28.3238 43.5936 23.9082 39.1773 23.9082 33.7478C23.9082 28.3197 28.3238 23.9033 33.752 23.9033C39.1801 23.9033 43.5957 28.3197 43.5957 33.7478C43.5957 39.1773 39.1801 43.5936 33.752 43.5936ZM33.752 25.3096C29.0994 25.3096 25.3145 29.0952 25.3145 33.7478C25.3145 38.4011 29.0994 42.1874 33.752 42.1874C38.4045 42.1874 42.1895 38.4011 42.1895 33.7478C42.1895 29.0952 38.4045 25.3096 33.752 25.3096Z" fill="white"/>
<path d="M33.752 41.4843C29.4875 41.4843 26.0176 38.0136 26.0176 33.7478C26.0176 29.4826 29.4875 26.0127 33.752 26.0127C38.0164 26.0127 41.4863 29.4826 41.4863 33.7478C41.4863 38.0136 38.0164 41.4843 33.752 41.4843ZM33.752 27.4189C30.2623 27.4189 27.4238 30.2582 27.4238 33.7478C27.4238 37.2381 30.2623 40.078 33.752 40.078C37.2416 40.078 40.0801 37.2381 40.0801 33.7478C40.0801 30.2582 37.2416 27.4189 33.752 27.4189Z" fill="white"/>
<path d="M33.752 35.8567C32.589 35.8567 31.6426 34.9103 31.6426 33.7473C31.6426 32.5843 32.589 31.6372 33.752 31.6372C34.9149 31.6372 35.8613 32.5843 35.8613 33.7473C35.8613 34.9103 34.9149 35.8567 33.752 35.8567ZM33.752 33.0435C33.3638 33.0435 33.0488 33.3592 33.0488 33.7473C33.0488 34.1354 33.3638 34.4504 33.752 34.4504C34.1401 34.4504 34.4551 34.1354 34.4551 33.7473C34.4551 33.3592 34.1401 33.0435 33.752 33.0435Z" fill="white"/>
<path d="M39.8421 30.9346H27.6611C27.2723 30.9346 26.958 30.6203 26.958 30.2314C26.958 29.8426 27.2723 29.5283 27.6611 29.5283H39.8421C40.2309 29.5283 40.5452 29.8426 40.5452 30.2314C40.5452 30.6203 40.2309 30.9346 39.8421 30.9346Z" fill="white"/>
<path d="M35.1593 41.3361C35.1551 41.3361 35.1502 41.3361 35.146 41.3361C34.7571 41.3284 34.4485 41.0078 34.4562 40.6196C34.5272 36.8825 36.9874 33.6861 40.5783 32.6652C40.9531 32.5576 41.3405 32.7756 41.4467 33.1489C41.5528 33.5223 41.3363 33.9111 40.9629 34.0173C37.9711 34.8681 35.9215 37.5315 35.8624 40.6456C35.8547 41.0303 35.5418 41.3361 35.1593 41.3361Z" fill="white"/>
<path d="M32.347 41.3429C31.9645 41.3429 31.6509 41.0356 31.6439 40.6524C31.5883 37.5334 29.5387 34.8671 26.5427 34.017C26.1686 33.9116 25.9521 33.5227 26.0582 33.1494C26.1637 32.7753 26.5539 32.5567 26.9259 32.6649C30.5224 33.6852 32.9833 36.8851 33.0501 40.6278C33.0571 41.016 32.7478 41.3366 32.3596 41.3436C32.3554 41.3429 32.3512 41.3429 32.347 41.3429Z" fill="white"/>
</svg>
