<svg width="45" height="45" viewBox="0 0 45 45" fill="none" xmlns="http://www.w3.org/2000/svg">
<g clip-path="url(#clip0_40_503)">
<path d="M33.75 27.75C32.5633 27.75 31.4033 28.1019 30.4166 28.7612C29.4299 29.4205 28.6609 30.3575 28.2067 31.4539C27.7526 32.5503 27.6338 33.7567 27.8653 34.9205C28.0968 36.0844 28.6682 37.1535 29.5074 37.9926C30.3465 38.8318 31.4156 39.4032 32.5795 39.6347C33.7433 39.8662 34.9497 39.7474 36.0461 39.2933C37.1425 38.8392 38.0795 38.0701 38.7388 37.0834C39.3981 36.0967 39.75 34.9367 39.75 33.75C39.7482 32.1592 39.1155 30.6342 37.9907 29.5093C36.8658 28.3845 35.3408 27.7518 33.75 27.75ZM33.75 38.25C32.86 38.25 31.99 37.9861 31.2499 37.4916C30.5099 36.9971 29.9331 36.2943 29.5925 35.4721C29.252 34.6498 29.1628 33.745 29.3365 32.8721C29.5101 31.9992 29.9387 31.1974 30.568 30.568C31.1974 29.9387 31.9992 29.5101 32.8721 29.3365C33.745 29.1628 34.6498 29.2519 35.4721 29.5925C36.2943 29.9331 36.9972 30.5099 37.4916 31.2499C37.9861 31.99 38.25 32.86 38.25 33.75C38.2488 34.9431 37.7743 36.087 36.9307 36.9307C36.087 37.7743 34.9431 38.2488 33.75 38.25Z" fill="white"/>
<path d="M33.75 30.75C33.1567 30.75 32.5766 30.9259 32.0833 31.2556C31.5899 31.5852 31.2054 32.0538 30.9784 32.6019C30.7513 33.1501 30.6919 33.7533 30.8076 34.3353C30.9234 34.9172 31.2091 35.4518 31.6287 35.8713C32.0482 36.2909 32.5828 36.5766 33.1647 36.6924C33.7467 36.8081 34.3499 36.7487 34.8981 36.5216C35.4462 36.2946 35.9148 35.9101 36.2444 35.4167C36.5741 34.9234 36.75 34.3433 36.75 33.75C36.75 32.9544 36.4339 32.1913 35.8713 31.6287C35.3087 31.0661 34.5457 30.75 33.75 30.75ZM33.75 35.25C33.4533 35.25 33.1633 35.162 32.9166 34.9972C32.67 34.8324 32.4777 34.5981 32.3642 34.324C32.2507 34.0499 32.2209 33.7483 32.2788 33.4574C32.3367 33.1664 32.4796 32.8991 32.6893 32.6893C32.8991 32.4796 33.1664 32.3367 33.4574 32.2788C33.7483 32.2209 34.0499 32.2506 34.324 32.3642C34.5981 32.4777 34.8324 32.67 34.9972 32.9166C35.162 33.1633 35.25 33.4533 35.25 33.75C35.25 34.1478 35.092 34.5294 34.8107 34.8107C34.5294 35.092 34.1478 35.25 33.75 35.25Z" fill="white"/>
<path d="M44.1038 31.65L42.7598 31.1123C42.5697 30.4653 42.3099 29.8409 41.985 29.25L42.5558 27.918C42.6566 27.6881 42.6916 27.4347 42.6568 27.1862C42.6219 26.9376 42.5187 26.7035 42.3585 26.5103C42.153 26.265 41.9332 26.0265 41.7045 25.7985C41.4757 25.5705 41.238 25.3485 40.9928 25.1445C40.7998 24.9842 40.566 24.8809 40.3177 24.846C40.0693 24.8112 39.8161 24.8462 39.5865 24.9473L38.25 25.515C37.6584 25.1899 37.0332 24.9302 36.3855 24.7402L35.85 23.4C35.7584 23.1663 35.6037 22.9626 35.403 22.8117C35.2024 22.6609 34.9637 22.5688 34.7137 22.5458C34.0718 22.488 33.426 22.488 32.784 22.5458C32.5344 22.5692 32.2963 22.6615 32.096 22.8123C31.8958 22.9631 31.7414 23.1666 31.65 23.4L31.1123 24.744C30.4654 24.9329 29.841 25.1914 29.25 25.515L27.918 24.9442C27.6882 24.8429 27.4347 24.8077 27.1861 24.8426C26.9374 24.8774 26.7033 24.9809 26.5103 25.1415C26.265 25.347 26.0265 25.5668 25.7985 25.7955C25.5705 26.0243 25.3485 26.262 25.1445 26.5072C25.0503 26.6239 24.9768 26.7558 24.927 26.8972C23.878 26.469 22.7556 26.2492 21.6225 26.25H21.4133C20.9237 25.6258 20.2567 25.1643 19.5 24.9263V24.1215C20.5569 23.4112 21.4379 22.4691 22.0759 21.367C22.7139 20.2649 23.0921 19.0318 23.1818 17.7615C23.5454 17.6433 23.8812 17.4525 24.1688 17.2005C24.4565 16.9486 24.6899 16.6409 24.855 16.296C25.3963 15.0879 25.6184 13.761 25.5 12.4425V10.7018C25.5234 7.89122 24.4311 5.18615 22.4627 3.17991C20.4943 1.17368 17.8105 0.0300903 15 0C12.1895 0.0300903 9.50574 1.17368 7.53733 3.17991C5.56891 5.18615 4.4766 7.89122 4.5 10.7018V12.4425C4.38161 13.7627 4.60449 15.0912 5.14725 16.3005C5.31227 16.6446 5.54548 16.9516 5.83272 17.2029C6.11996 17.4542 6.45525 17.6445 6.81825 17.7623C6.908 19.0324 7.28626 20.2654 7.92425 21.3673C8.56224 22.4693 9.44317 23.4112 10.5 24.1215V24.9263C9.74328 25.1643 9.07631 25.6258 8.58675 26.25H8.3775C3.75825 26.25 0 29.82 0 34.2075V43.5C0 43.8978 0.158035 44.2794 0.43934 44.5607C0.720644 44.842 1.10218 45 1.5 45H28.5C28.8978 45 29.2794 44.842 29.5607 44.5607C29.842 44.2794 30 43.8978 30 43.5V42.3473C30.3615 42.5079 30.7327 42.6456 31.1115 42.7598L31.6493 44.1038C31.7408 44.3375 31.8956 44.5412 32.0962 44.692C32.2969 44.8429 32.5355 44.935 32.7855 44.958C33.1043 44.9865 33.4268 45 33.75 45C34.0732 45 34.3957 44.9865 34.7152 44.958C34.965 44.9347 35.2033 44.8425 35.4037 44.6916C35.604 44.5408 35.7585 44.3373 35.85 44.1038L36.3877 42.7598C37.0347 42.5697 37.6591 42.3099 38.25 41.985L39.582 42.5558C39.8119 42.6566 40.0653 42.6916 40.3138 42.6568C40.5624 42.6219 40.7965 42.5187 40.9897 42.3585C41.235 42.153 41.4735 41.9332 41.7015 41.7045C41.9295 41.4757 42.1515 41.238 42.3555 40.9928C42.5158 40.7998 42.6191 40.566 42.654 40.3177C42.6888 40.0693 42.6538 39.8161 42.5527 39.5865L41.985 38.25C42.3101 37.6584 42.5698 37.0332 42.7598 36.3855L44.1038 35.8478C44.3375 35.7562 44.5412 35.6014 44.692 35.4008C44.8429 35.2001 44.935 34.9615 44.958 34.7115C44.9865 34.3928 45 34.0702 45 33.747C45 33.4237 44.9865 33.1012 44.958 32.7817C44.9342 32.5326 44.8417 32.2949 44.6909 32.0951C44.5401 31.8953 44.3369 31.7412 44.1038 31.65V31.65ZM15 40.44C14.4357 40.1817 13.9211 39.8263 13.4797 39.39L14.175 33H15.825L16.518 39.393C16.0771 39.8281 15.5633 40.1824 15 40.44V40.44ZM15 28.7655C15.647 28.8488 16.2707 29.0615 16.8337 29.391L15.9922 31.5H14.0078L13.1663 29.4C13.7295 29.0694 14.3528 28.8537 15 28.7655ZM11.9775 30.9315C12.0009 30.8447 12.0292 30.7593 12.0623 30.6758L12.7372 32.355L12.1613 37.6687C11.0453 35.5253 10.3334 33.1947 10.0612 30.7935C10.3149 31.0226 10.5899 31.2267 10.8825 31.4032C10.9831 31.4601 11.0955 31.4929 11.2109 31.4991C11.3263 31.5053 11.4415 31.4848 11.5477 31.4391C11.6538 31.3934 11.748 31.3239 11.8228 31.2358C11.8976 31.1478 11.9511 31.0436 11.979 30.9315H11.9775ZM17.8425 37.6725L17.2657 32.355L17.9407 30.6758C17.9737 30.7594 18.002 30.8448 18.0255 30.9315C18.0534 31.0436 18.1069 31.1478 18.1817 31.2358C18.2565 31.3239 18.3507 31.3934 18.4568 31.4391C18.563 31.4848 18.6782 31.5053 18.7936 31.4991C18.909 31.4929 19.0214 31.4601 19.122 31.4032C19.4159 31.2263 19.6921 31.0216 19.947 30.792C19.6748 33.1954 18.9613 35.528 17.8425 37.6725V37.6725ZM20.2425 27.189C20.169 28.1003 19.7499 28.9489 19.071 29.5613C18.6598 28.876 18.0637 28.3205 17.3513 27.9585C18.0556 27.5796 18.6607 27.04 19.1175 26.3835C19.5674 26.5291 19.9612 26.8105 20.2448 27.189H20.2425ZM15 1.5C17.3682 1.52915 19.6317 2.48037 21.3098 4.15162C22.9879 5.82286 23.9484 8.08246 23.9872 10.4505C23.697 10.3758 23.3928 10.3737 23.1015 10.4445C22.4618 7.84425 19.9065 6.51225 18.318 6.11475C18.0582 6.04393 17.7863 6.02931 17.5204 6.07185C17.2545 6.1144 17.0007 6.21315 16.776 6.3615C14.6588 7.7985 10.614 8.4765 8.55825 8.56575C8.08031 8.59176 7.62949 8.79598 7.29473 9.13809C6.95998 9.4802 6.76562 9.93536 6.75 10.4138C6.50425 10.3737 6.25294 10.3839 6.01125 10.4438C6.05185 8.07664 7.01331 5.81852 8.69155 4.14868C10.3698 2.47883 12.6327 1.52872 15 1.5V1.5ZM8.3085 17.5725C8.2935 17.2938 8.19249 17.0266 8.01936 16.8077C7.84623 16.5887 7.6095 16.4288 7.34175 16.35C7.15667 16.3009 6.98472 16.2115 6.83821 16.0882C6.69171 15.9649 6.57425 15.8107 6.49425 15.6368C6.05651 14.6325 5.88624 13.5321 6 12.4425C5.99877 12.3523 6.01844 12.263 6.05748 12.1817C6.09652 12.1004 6.15385 12.0292 6.225 11.9738C6.29108 11.9213 6.37243 11.8918 6.45675 11.8897C6.48843 11.8897 6.51998 11.894 6.5505 11.9025C6.64546 11.946 6.72085 12.0233 6.762 12.1193C6.795 12.3025 6.89497 12.4669 7.04247 12.5805C7.18997 12.6941 7.37445 12.7488 7.56004 12.7339C7.74562 12.719 7.91904 12.6357 8.04657 12.5C8.17409 12.3644 8.2466 12.1861 8.25 12V10.4925C8.24644 10.3868 8.28321 10.2838 8.35286 10.2043C8.4225 10.1247 8.5198 10.0747 8.625 10.0642C10.929 9.96375 15.225 9.22575 17.6085 7.60725C17.6587 7.5784 17.7142 7.56 17.7717 7.55317C17.8292 7.54634 17.8874 7.55121 17.943 7.5675C18.1012 7.6065 21.75 8.55525 21.75 11.7V12C21.7503 12.1883 21.8215 12.3697 21.9494 12.5079C22.0772 12.6462 22.2524 12.7313 22.4402 12.7463C22.6279 12.7613 22.8144 12.7052 22.9627 12.589C23.1109 12.4728 23.21 12.3051 23.2402 12.1193C23.2808 12.0236 23.3557 11.9465 23.4503 11.9033C23.5064 11.8879 23.5654 11.8863 23.6224 11.8986C23.6793 11.9109 23.7324 11.9366 23.7772 11.9738C23.8484 12.0292 23.9057 12.1004 23.9448 12.1817C23.9838 12.263 24.0035 12.3523 24.0022 12.4425C24.1166 13.5311 23.9471 14.6308 23.5103 15.6345C23.4287 15.812 23.3086 15.969 23.1586 16.0941C23.0086 16.2192 22.8325 16.3092 22.6432 16.3575C22.3795 16.4383 22.147 16.5982 21.9772 16.8155C21.8073 17.0328 21.7084 17.2971 21.6937 17.5725C21.6048 19.2943 20.863 20.9174 19.6194 22.1115C18.3758 23.3056 16.7239 23.9809 15 24C13.2764 23.9804 11.6251 23.3048 10.382 22.1107C9.13892 20.9167 8.39746 19.2939 8.3085 17.5725V17.5725ZM15 25.5C16.028 25.5002 17.0465 25.3029 18 24.9187V25.341C17.8305 25.674 17.1202 26.7727 15 27.2415C12.8715 26.7712 12.1635 25.6665 12 25.344V24.9187C12.9535 25.3029 13.972 25.5002 15 25.5ZM10.8802 26.3805C11.3371 27.037 11.9422 27.5766 12.6465 27.9555C11.9342 28.3174 11.3382 28.8726 10.9268 29.5575C10.2476 28.9457 9.82845 28.0971 9.75525 27.186C10.0384 26.8081 10.4312 26.5267 10.8802 26.3805V26.3805ZM1.5 34.2075C1.55875 32.4601 2.30073 30.8056 3.56645 29.5994C4.83217 28.3933 6.52058 27.732 8.26875 27.7575C8.376 30.4327 9.123 39.3075 14.25 41.7435V43.5H1.5V34.2075ZM15.75 43.5V41.7412C20.8755 39.3045 21.6233 30.4357 21.7313 27.7575C22.9927 27.7732 24.2275 28.1225 25.3103 28.77L25.515 29.25C25.1899 29.8416 24.9302 30.4668 24.7402 31.1145L23.4 31.65C23.1663 31.7416 22.9626 31.8963 22.8117 32.097C22.6609 32.2976 22.5688 32.5363 22.5458 32.7863C22.5135 33.1043 22.5 33.4268 22.5 33.75C22.5 34.0732 22.5135 34.3957 22.542 34.7152C22.5656 34.9654 22.6584 35.204 22.8099 35.4044C22.9615 35.6048 23.1658 35.7591 23.4 35.85L24.744 36.3877C24.9329 37.0346 25.1914 37.659 25.515 38.25L24.9442 39.582C24.8434 39.8119 24.8084 40.0653 24.8432 40.3138C24.8781 40.5624 24.9813 40.7965 25.1415 40.9897C25.347 41.235 25.5668 41.4735 25.7955 41.7015C26.0243 41.9295 26.262 42.1515 26.5072 42.3555C26.7002 42.5158 26.934 42.6191 27.1823 42.654C27.4307 42.6888 27.6839 42.6538 27.9135 42.5527L28.5 42.3053V43.5H15.75ZM43.4723 34.4873L41.8552 35.1345C41.7448 35.1785 41.6463 35.2482 41.5681 35.3378C41.4898 35.4274 41.434 35.5343 41.4053 35.6498C41.2159 36.4132 40.9125 37.1436 40.5052 37.8165C40.4438 37.9184 40.4075 38.0334 40.3993 38.1521C40.3911 38.2707 40.4112 38.3896 40.458 38.499L41.145 40.1033C40.986 40.2893 40.818 40.47 40.6433 40.644C40.4685 40.818 40.2885 40.9868 40.1025 41.1458L38.4983 40.4587C38.389 40.4115 38.27 40.3911 38.1513 40.3994C38.0325 40.4076 37.9175 40.4442 37.8158 40.506C37.1429 40.9133 36.4124 41.2167 35.649 41.406C35.5336 41.4348 35.4267 41.4906 35.3371 41.5688C35.2475 41.6471 35.1778 41.7455 35.1338 41.856L34.4865 43.473C33.9957 43.5113 33.5028 43.5113 33.012 43.473L32.3647 41.856C32.3207 41.7455 32.251 41.6471 32.1614 41.5688C32.0718 41.4906 31.9649 41.4348 31.8495 41.406C31.0861 41.2167 30.3556 40.9133 29.6827 40.506C29.581 40.4442 29.466 40.4077 29.3472 40.3995C29.2285 40.3912 29.1095 40.4116 29.0002 40.4587L27.396 41.1458C27.21 40.9868 27.0292 40.8188 26.8552 40.644C26.6812 40.4693 26.5125 40.2893 26.3535 40.1033L27.0405 38.499C27.0873 38.3896 27.1074 38.2707 27.0992 38.1521C27.091 38.0334 27.0547 37.9184 26.9933 37.8165C26.586 37.1436 26.2826 36.4132 26.0933 35.6498C26.0645 35.5343 26.0087 35.4274 25.9304 35.3378C25.8522 35.2482 25.7537 35.1785 25.6433 35.1345L24.0262 34.4873C24.009 34.2435 24 33.9967 24 33.75C24 33.5033 24.009 33.2565 24.0277 33.0127L25.6448 32.3655C25.7552 32.3215 25.8537 32.2518 25.9319 32.1622C26.0102 32.0726 26.066 31.9657 26.0947 31.8502C26.2841 31.0868 26.5875 30.3564 26.9948 29.6835C27.0562 29.5816 27.0925 29.4666 27.1007 29.3479C27.1089 29.2293 27.0888 29.1104 27.042 29.001L26.355 27.3967C26.514 27.2107 26.682 27.03 26.8567 26.856C27.0315 26.682 27.2115 26.5132 27.3975 26.3542L29.0017 27.0413C29.1111 27.0881 29.23 27.1082 29.3487 27.1C29.4674 27.0918 29.5824 27.0554 29.6842 26.994C30.3571 26.5867 31.0876 26.2833 31.851 26.094C31.9664 26.0652 32.0733 26.0094 32.1629 25.9312C32.2525 25.8529 32.3222 25.7545 32.3662 25.644L33.0135 24.027C33.5043 23.9887 33.9972 23.9887 34.488 24.027L35.1353 25.644C35.1793 25.7545 35.249 25.8529 35.3386 25.9312C35.4282 26.0094 35.5351 26.0652 35.6505 26.094C36.4139 26.2833 37.1444 26.5867 37.8173 26.994C37.9191 27.0554 38.0341 27.0918 38.1528 27.1C38.2715 27.1082 38.3904 27.0881 38.4998 27.0413L40.104 26.3542C40.29 26.5132 40.4708 26.6812 40.6448 26.856C40.8188 27.0307 40.9875 27.2107 41.1465 27.3967L40.4595 29.001C40.4127 29.1104 40.3926 29.2293 40.4008 29.3479C40.409 29.4666 40.4453 29.5816 40.5067 29.6835C40.914 30.3564 41.2174 31.0868 41.4067 31.8502C41.4355 31.9657 41.4913 32.0726 41.5696 32.1622C41.6478 32.2518 41.7463 32.3215 41.8567 32.3655L43.4738 33.0127C43.4925 33.2565 43.5015 33.5033 43.5015 33.75C43.5015 33.9967 43.491 34.2435 43.4723 34.4873Z" fill="white"/>
<path d="M42 4.5H40.5C40.1022 4.5 39.7206 4.65804 39.4393 4.93934C39.158 5.22064 39 5.60218 39 6V9H33V6C33 5.60218 32.842 5.22064 32.5607 4.93934C32.2794 4.65804 31.8978 4.5 31.5 4.5H30C29.2044 4.5 28.4413 4.81607 27.8787 5.37868C27.3161 5.94129 27 6.70435 27 7.5V17.9588C27 18.0255 27 18.093 27.0038 18.1605C27.0618 18.9438 27.4181 19.675 27.9993 20.2033C28.5805 20.7316 29.3422 21.0167 30.1275 21H42C42.7957 21 43.5587 20.6839 44.1213 20.1213C44.6839 19.5587 45 18.7957 45 18V7.5C45 6.70435 44.6839 5.94129 44.1213 5.37868C43.5587 4.81607 42.7957 4.5 42 4.5ZM28.5 7.5C28.5 7.10218 28.658 6.72065 28.9393 6.43934C29.2206 6.15804 29.6022 6 30 6H31.5V15H30C29.4732 15.0005 28.9559 15.1396 28.5 15.4035V7.5ZM42 19.5H30.1275C29.7275 19.5119 29.3377 19.3725 29.036 19.1096C28.7343 18.8467 28.5429 18.4796 28.5 18.0818C28.5 18.054 28.5 18.027 28.5 18V17.9768C28.5061 17.583 28.6668 17.2074 28.9475 16.9311C29.2281 16.6548 29.6062 16.5 30 16.5H31.5C31.8978 16.5 32.2794 16.342 32.5607 16.0607C32.842 15.7794 33 15.3978 33 15V10.5H39V15C39 15.3978 39.158 15.7794 39.4393 16.0607C39.7206 16.342 40.1022 16.5 40.5 16.5H42C42.3978 16.5 42.7794 16.658 43.0607 16.9393C43.342 17.2206 43.5 17.6022 43.5 18C43.5 18.3978 43.342 18.7794 43.0607 19.0607C42.7794 19.342 42.3978 19.5 42 19.5ZM43.5 15.4028C43.0444 15.1382 42.5268 14.9992 42 15H40.5V6H42C42.3978 6 42.7794 6.15804 43.0607 6.43934C43.342 6.72065 43.5 7.10218 43.5 7.5V15.4028Z" fill="white"/>
</g>
<defs>
<clipPath id="clip0_40_503">
<rect width="45" height="45" fill="white"/>
</clipPath>
</defs>
</svg>
