<svg width="45" height="45" viewBox="0 0 45 45" fill="none" xmlns="http://www.w3.org/2000/svg">
<path d="M40.2512 24.2409C40.2512 22.6286 39.223 21.2046 37.6925 20.6977L34.9269 19.7812C35.6531 18.8924 36.0896 17.7581 36.0896 16.5234V15.4072C36.0896 12.5633 33.7759 10.2496 30.9319 10.2496C28.9435 10.2496 27.1938 11.3717 26.3351 13.064C25.3104 12.1633 23.9684 11.6152 22.5001 11.6152C21.0318 11.6152 19.6898 12.1632 18.6651 13.0639C17.8065 11.3716 16.0568 10.2495 14.0683 10.2495C11.2244 10.2495 8.91064 12.5632 8.91064 15.4071V16.5233C8.91064 17.758 9.34711 18.8923 10.0733 19.7812L7.30769 20.6976C5.77726 21.2046 4.74902 22.6286 4.74902 24.2408V29.7314C4.74902 30.2167 5.14242 30.6103 5.62775 30.6103H11.8802V33.9639C11.8802 34.4491 12.2736 34.8426 12.7589 34.8426H32.2413C32.7266 34.8426 33.12 34.4491 33.12 33.9639V30.6103H39.3725C39.8578 30.6103 40.2512 30.2168 40.2512 29.7314V24.2408V24.2408V24.2409ZM30.9319 12.007C32.8068 12.007 34.332 13.5321 34.332 15.407V16.5232C34.332 17.6993 33.7317 18.7375 32.8216 19.3483C32.7658 19.3757 32.713 19.4089 32.664 19.4475C32.1563 19.7494 31.5641 19.9234 30.9319 19.9234C29.9099 19.9234 28.9661 19.4768 28.3172 18.6937V17.4321C28.3172 16.4303 28.0625 15.4867 27.6146 14.6629C27.9582 13.1143 29.3275 12.007 30.9319 12.007ZM18.4407 17.4322C18.4405 15.1938 20.2616 13.3727 22.5 13.3727C24.7384 13.3727 26.5595 15.1938 26.5595 17.4322V18.7204C26.5595 20.129 25.838 21.3718 24.7456 22.1002C24.6856 22.1291 24.6291 22.1648 24.5769 22.2067C23.9689 22.5703 23.2585 22.7799 22.5001 22.7799C21.7415 22.7799 21.0312 22.5702 20.4232 22.2066C20.3712 22.1649 20.315 22.1294 20.2553 22.1006C19.1625 21.3723 18.4407 20.1293 18.4407 18.7204V17.4322ZM10.6679 15.4071C10.668 13.5322 12.1933 12.0071 14.0682 12.0071C15.6726 12.0071 17.0418 13.1144 17.3854 14.663C16.9376 15.4869 16.6829 16.4304 16.6829 17.4322V18.6939C16.0338 19.477 15.0901 19.9235 14.0681 19.9235C13.4356 19.9235 12.8432 19.7494 12.3355 19.4474C12.2869 19.4093 12.2346 19.3763 12.1794 19.3492C11.2687 18.7385 10.6679 17.6999 10.6679 16.5234V15.4071V15.4071ZM11.8801 27.6272V28.8528H6.5064V24.2409C6.5064 23.3878 7.05044 22.6344 7.86035 22.3659L11.689 21.0971C12.4014 21.4692 13.2103 21.681 14.0682 21.681C15.1569 21.681 16.1862 21.3463 17.044 20.7371C17.2923 21.4067 17.6613 22.0177 18.1232 22.5455L14.7403 23.6665C13.0295 24.2333 11.8801 25.8251 11.8801 27.6272ZM13.6376 33.0853V27.6272C13.6376 26.5842 14.3028 25.6628 15.2929 25.3348L19.7653 23.8528C20.5811 24.2892 21.5119 24.5375 22.4999 24.5375C23.4878 24.5375 24.4188 24.2892 25.2344 23.8528L29.7068 25.3348C30.6969 25.6628 31.3621 26.5842 31.3621 27.6272V33.0853H13.6376ZM38.4937 28.8528H33.1199V27.6272C33.1199 25.8251 31.9705 24.2333 30.2599 23.6665L26.877 22.5455C27.3388 22.0176 27.7078 21.4067 27.9561 20.7371C28.8139 21.3464 29.8432 21.681 30.9319 21.681C31.7898 21.681 32.5987 21.4693 33.3111 21.0971L37.1398 22.3659C37.9496 22.6344 38.4937 23.3878 38.4937 24.2409V28.8528Z" fill="white"/>
<path d="M4.49281 10.5022C4.07902 10.2486 3.53797 10.3784 3.2844 10.7924L3.26225 10.8287C3.00966 11.2432 3.14105 11.7838 3.55563 12.0363C3.69845 12.1232 3.85604 12.1646 4.01187 12.1646C4.30833 12.1646 4.59775 12.0146 4.76325 11.7428L4.78294 11.7107C5.0365 11.2967 4.9066 10.7557 4.49281 10.5022Z" fill="white"/>
<path d="M37.7026 36.6483H33.338C32.9827 36.6483 32.6622 36.8625 32.5261 37.1908C32.39 37.5191 32.4653 37.8972 32.7166 38.1484L34.197 39.6289C26.0579 45.1958 14.8705 44.2002 7.83508 37.1647C1.74021 31.0698 0.0431326 22.0342 3.51182 14.1454C3.7072 13.7011 3.50532 13.1826 3.06112 12.9872C2.61683 12.7917 2.09837 12.9936 1.90299 13.4379C0.0986796 17.5415 -0.436047 22.052 0.356463 26.4817C1.16778 31.0153 3.32409 35.1393 6.5923 38.4075C10.439 42.2542 15.5432 44.5757 20.9645 44.9446C21.4767 44.9794 21.9876 44.9967 22.498 44.9967C27.1395 44.9965 31.6734 43.5649 35.4597 40.8916L37.0812 42.5131C37.2494 42.6812 37.4741 42.7705 37.7029 42.7705C37.8161 42.7705 37.9302 42.7486 38.0389 42.7036C38.3672 42.5676 38.5813 42.2472 38.5813 41.8917V37.5271C38.5814 37.0418 38.188 36.6483 37.7026 36.6483ZM36.8239 39.7701L35.4596 38.4059H36.8239V39.7701Z" fill="white"/>
<path d="M44.6627 18.6309C43.8674 14.0524 41.7041 9.88949 38.4069 6.59236C34.5603 2.74574 29.4561 0.424193 24.0348 0.0554037C18.865 -0.295807 13.7421 1.14103 9.53949 4.1083L7.91809 2.4869C7.66672 2.23553 7.28879 2.16047 6.96043 2.29635C6.63207 2.43241 6.41797 2.75277 6.41797 3.10828V7.47284C6.41797 7.95809 6.81137 8.35157 7.2967 8.35157H11.6612C12.0165 8.35157 12.3371 8.13739 12.4731 7.80911C12.6092 7.48075 12.5339 7.10274 12.2826 6.85146L10.8022 5.37103C18.9413 -0.196051 30.1287 0.799573 37.1641 7.83513C43.2325 13.9034 44.935 23.2329 41.4004 31.0501C41.2004 31.4923 41.3968 32.0129 41.839 32.2128C41.9565 32.266 42.0795 32.2912 42.2005 32.2912C42.5351 32.2912 42.855 32.0989 43.0018 31.7742C44.8659 27.6517 45.4402 23.1069 44.6627 18.6309ZM8.17552 6.59403V5.22988L9.53976 6.59411H8.17552V6.59403Z" fill="white"/>
<path d="M41.3837 33.0739C40.9709 32.8186 40.4294 32.9463 40.174 33.3591L40.1471 33.4026C39.8918 33.8153 40.0196 34.3568 40.4324 34.6121C40.5765 34.7013 40.736 34.7436 40.8938 34.7436C41.1882 34.7436 41.4758 34.5957 41.6421 34.3269L41.669 34.2834C41.9242 33.8706 41.7964 33.3291 41.3837 33.0739Z" fill="white"/>
</svg>
