<svg width="45" height="45" viewBox="0 0 45 45" fill="none" xmlns="http://www.w3.org/2000/svg">
<path d="M44.1 16.2H40.5V1.8C40.4991 0.806396 39.6936 0.000878906 38.7 0H6.3C5.3064 0.000878906 4.50088 0.806396 4.5 1.8V16.2H0.9C0.402978 16.2 0 16.603 0 17.1V24.3C0 24.797 0.402978 25.2 0.9 25.2H4.5V33.3C4.5 33.5417 4.598 33.7733 4.77158 33.9416C4.59492 34.3024 4.5022 34.6983 4.5 35.1V36.9C4.50176 38.3906 5.70937 39.5982 7.2 39.6V42.3C7.20176 43.7906 8.40937 44.9982 9.9 45H13.5C14.9906 44.9982 16.1982 43.7906 16.2 42.3V39.6H28.8V42.3C28.8018 43.7906 30.0094 44.9982 31.5 45H35.1C36.5906 44.9982 37.7982 43.7906 37.8 42.3V39.6C39.2906 39.5982 40.4982 38.3906 40.5 36.9V35.1C40.4978 34.6983 40.4051 34.3024 40.2289 33.9416C40.402 33.7733 40.5 33.5417 40.5 33.3V25.2H44.1C44.597 25.2 45 24.797 45 24.3V17.1C45 16.603 44.597 16.2 44.1 16.2ZM37.8 32.4V26.5816L38.7 25.9818V32.4H37.8ZM12.6 32.4V29.7C12.6 29.4614 12.5051 29.2324 12.3363 29.0637L10.5363 27.2637C10.3676 27.0949 10.1386 27 9.9 27H9V11.7C9.00176 10.2094 10.2094 9.00176 11.7 9H33.3C34.7906 9.00176 35.9982 10.2094 36 11.7V27H35.1C34.8614 27 34.6324 27.0949 34.4637 27.2637L32.6637 29.0637C32.4949 29.2324 32.4 29.4614 32.4 29.7V32.4H12.6ZM6.3 32.4V25.9818L7.2 26.5816V32.4H6.3ZM9 28.8H9.52734L10.8 30.0727V32.4H9V28.8ZM34.2 30.0727L35.4727 28.8H36V32.4H34.2V30.0727ZM6.3 1.8H38.7V23.8184L37.8 24.4182V11.7C37.7969 9.21577 35.7842 7.20308 33.3 7.2H11.7C9.21577 7.20308 7.20308 9.21577 7.2 11.7V24.4182L6.3 23.8184V1.8ZM1.8 23.4V18H4.5V23.4H1.8ZM14.4 42.3C14.3996 42.7966 13.9966 43.1996 13.5 43.2H9.9C9.40342 43.1996 9.00044 42.7966 9 42.3V39.6H14.4V42.3ZM36 42.3C35.9996 42.7966 35.5966 43.1996 35.1 43.2H31.5C31.0034 43.1996 30.6004 42.7966 30.6 42.3V39.6H36V42.3ZM38.7 36.9C38.6996 37.3966 38.2966 37.7996 37.8 37.8H7.2C6.70342 37.7996 6.30044 37.3966 6.3 36.9V35.1C6.30044 34.6034 6.70342 34.2004 7.2 34.2H37.8C38.2966 34.2004 38.6996 34.6034 38.7 35.1V36.9ZM43.2 23.4H40.5V18H43.2V23.4Z" fill="white"/>
<path d="M14.9784 25.1998H30.0209C30.1435 25.1998 30.2644 25.1748 30.3769 25.1264L34.5556 23.3264C34.8857 23.184 35.0997 22.8593 35.0997 22.4998V12.5998C35.1159 11.6238 34.3398 10.8187 33.3638 10.7998H11.6355C10.6595 10.8187 9.88341 11.6238 9.89966 12.5998V22.4998C9.89966 22.8593 10.1137 23.184 10.4437 23.3264L14.6225 25.1264C14.735 25.1748 14.8558 25.1998 14.9784 25.1998V25.1998ZM11.6355 12.5998H33.2997V21.9074L29.8355 23.3998H27.0717L27.5859 22.4998H30.1497C30.6467 22.4998 31.0497 22.0968 31.0497 21.5998C31.0497 21.1028 30.6467 20.6998 30.1497 20.6998H24.7497C24.2526 20.6998 23.8497 21.1028 23.8497 21.5998C23.8497 22.0968 24.2526 22.4998 24.7497 22.4998H25.513L24.9988 23.3998H18.0717L18.5859 22.4998H21.1497C21.6467 22.4998 22.0497 22.0968 22.0497 21.5998C22.0497 21.1028 21.6467 20.6998 21.1497 20.6998H15.7497C15.2526 20.6998 14.8497 21.1028 14.8497 21.5998C14.8497 22.0968 15.2526 22.4998 15.7497 22.4998H16.513L15.9988 23.3998H15.1639L11.6957 21.9057L11.6355 12.5998Z" fill="white"/>
<path d="M19.7998 35.1001H16.1998C15.7028 35.1001 15.2998 35.5031 15.2998 36.0001C15.2998 36.4971 15.7028 36.9001 16.1998 36.9001H19.7998C20.2968 36.9001 20.6998 36.4971 20.6998 36.0001C20.6998 35.5031 20.2968 35.1001 19.7998 35.1001Z" fill="white"/>
<path d="M28.7998 35.1001H25.1998C24.7028 35.1001 24.2998 35.5031 24.2998 36.0001C24.2998 36.4971 24.7028 36.9001 25.1998 36.9001H28.7998C29.2968 36.9001 29.6998 36.4971 29.6998 36.0001C29.6998 35.5031 29.2968 35.1001 28.7998 35.1001Z" fill="white"/>
<path d="M29.7004 29.7002H15.3004C14.8034 29.7002 14.4004 30.1032 14.4004 30.6002C14.4004 31.0972 14.8034 31.5002 15.3004 31.5002H29.7004C30.1974 31.5002 30.6004 31.0972 30.6004 30.6002C30.6004 30.1032 30.1974 29.7002 29.7004 29.7002Z" fill="white"/>
<path d="M29.7004 27H15.3004C14.8034 27 14.4004 27.403 14.4004 27.9C14.4004 28.397 14.8034 28.8 15.3004 28.8H29.7004C30.1974 28.8 30.6004 28.397 30.6004 27.9C30.6004 27.403 30.1974 27 29.7004 27Z" fill="white"/>
</svg>
