<svg width="19" height="19" viewBox="0 0 19 19" fill="none" xmlns="http://www.w3.org/2000/svg">
<path d="M0.0830078 16.0233V2.98235C0.134334 2.86435 0.214894 2.76137 0.317078 2.68316C0.419262 2.60495 0.539697 2.55406 0.667007 2.53533C1.76701 2.34133 2.867 2.12734 3.974 1.92034L9.804 0.826347C9.88968 0.805874 9.97891 0.805289 10.0648 0.824638C10.1508 0.843987 10.2312 0.882763 10.2998 0.93798C10.3684 0.993198 10.4235 1.06338 10.4608 1.14318C10.4981 1.22298 10.5166 1.31026 10.515 1.39834C10.522 1.73634 10.515 2.07435 10.515 2.41235C10.515 2.64635 10.515 2.87935 10.515 3.12835H17.915C18.415 3.12835 18.626 3.33833 18.626 3.84533C18.626 7.618 18.626 11.3907 18.626 15.1634C18.626 15.6714 18.419 15.8803 17.916 15.8803H10.516C10.516 16.4573 10.516 17.0053 10.516 17.5543C10.5254 17.6498 10.5112 17.7461 10.4747 17.8349C10.4382 17.9236 10.3806 18.002 10.3068 18.0633C10.233 18.1246 10.1453 18.1668 10.0513 18.1864C9.95741 18.2059 9.86013 18.2021 9.76801 18.1753C6.76401 17.6133 3.75967 17.0523 0.755005 16.4923C0.611114 16.482 0.472699 16.433 0.354401 16.3504C0.236102 16.2679 0.142326 16.1548 0.0830078 16.0233ZM10.523 12.4004C11.096 12.4004 11.651 12.4004 12.206 12.4004C12.2861 12.3941 12.3666 12.4045 12.4425 12.431C12.5184 12.4575 12.5879 12.4994 12.6468 12.5542C12.7056 12.6089 12.7524 12.6752 12.7843 12.749C12.8162 12.8227 12.8325 12.9022 12.8321 12.9826C12.8316 13.0629 12.8146 13.1423 12.7819 13.2158C12.7493 13.2892 12.7017 13.355 12.6423 13.4091C12.5829 13.4632 12.5129 13.5044 12.4368 13.5301C12.3607 13.5558 12.2801 13.5654 12.2 13.5583C11.705 13.5583 11.21 13.5583 10.715 13.5583H10.525V14.7064H17.458V4.29534H10.527V5.44533C11.093 5.44533 11.647 5.44533 12.201 5.44533C12.2811 5.43867 12.3617 5.44871 12.4377 5.47478C12.5137 5.50086 12.5835 5.54241 12.6426 5.59682C12.7017 5.65124 12.7489 5.71733 12.7812 5.79092C12.8135 5.8645 12.8302 5.94399 12.8302 6.02434C12.8302 6.1047 12.8135 6.18419 12.7812 6.25777C12.7489 6.33136 12.7017 6.39745 12.6426 6.45187C12.5835 6.50628 12.5137 6.54783 12.4377 6.57391C12.3617 6.59998 12.2811 6.61002 12.201 6.60335C11.701 6.60335 11.211 6.60335 10.716 6.60335H10.526V7.76235C11.089 7.76235 11.638 7.76235 12.187 7.76235C12.268 7.75369 12.3498 7.7621 12.4273 7.78704C12.5048 7.81198 12.5762 7.8529 12.6368 7.90716C12.6975 7.96141 12.7462 8.02779 12.7796 8.10201C12.813 8.17623 12.8305 8.25664 12.8309 8.33804C12.8314 8.41943 12.8147 8.50002 12.782 8.57458C12.7494 8.64914 12.7014 8.71602 12.6413 8.7709C12.5812 8.82578 12.5102 8.86741 12.433 8.89315C12.3558 8.91889 12.274 8.92817 12.193 8.92034C11.693 8.92034 11.203 8.92034 10.708 8.92034H10.522V10.0793H12.086C12.558 10.0793 12.827 10.2874 12.829 10.6544C12.831 11.0213 12.56 11.2383 12.095 11.2383H10.523V12.4004ZM5.448 8.44836C5.395 8.39236 5.34801 8.34836 5.31401 8.30636C4.89301 7.82536 4.473 7.34236 4.05 6.86236C4.00411 6.79317 3.94399 6.73454 3.87366 6.69042C3.80332 6.6463 3.72437 6.6177 3.64211 6.6065C3.55984 6.5953 3.47613 6.60177 3.39656 6.62548C3.31699 6.64919 3.24338 6.68961 3.18066 6.74401C3.11794 6.79842 3.06755 6.86558 3.03284 6.941C2.99812 7.01642 2.97989 7.09836 2.97935 7.18139C2.97882 7.26441 2.99599 7.34661 3.02972 7.42248C3.06346 7.49834 3.11299 7.56612 3.175 7.62133C3.242 7.69933 3.31 7.77635 3.375 7.85335L4.71201 9.38335C4.67201 9.43835 4.637 9.48336 4.601 9.53436C4.11633 10.1584 3.63134 10.7823 3.14601 11.4063C3.07986 11.4771 3.03155 11.5627 3.00511 11.6559C2.97868 11.7492 2.97487 11.8474 2.994 11.9423C3.01553 12.0497 3.06832 12.1482 3.14572 12.2256C3.22312 12.303 3.32168 12.3558 3.429 12.3773C3.54392 12.4073 3.66533 12.4003 3.77606 12.3574C3.88679 12.3145 3.98123 12.2379 4.04601 12.1383C4.48801 11.5723 4.92868 11.0057 5.36801 10.4383C5.40701 10.3883 5.448 10.3383 5.494 10.2833C5.552 10.3473 5.59401 10.3954 5.64101 10.4444C6.13367 11.007 6.62634 11.57 7.119 12.1334C7.16445 12.2033 7.22436 12.2628 7.29471 12.3076C7.36506 12.3525 7.44421 12.3818 7.52682 12.3935C7.60944 12.4052 7.69362 12.3991 7.77367 12.3755C7.85372 12.352 7.92779 12.3115 7.99089 12.257C8.054 12.2024 8.10467 12.1349 8.1395 12.059C8.17432 11.9832 8.1925 11.9008 8.19279 11.8173C8.19309 11.7339 8.1755 11.6514 8.1412 11.5753C8.10691 11.4992 8.05672 11.4314 7.994 11.3763C7.674 11.0073 7.35101 10.6403 7.02901 10.2763L6.22101 9.35134C6.25901 9.29934 6.287 9.26034 6.321 9.22234C6.891 8.48901 7.46133 7.75566 8.032 7.02233C8.10024 6.94924 8.14937 6.86044 8.17502 6.76379C8.20066 6.66714 8.20203 6.56565 8.179 6.46835C8.15489 6.36124 8.09954 6.26369 8.01997 6.18804C7.94041 6.11239 7.8402 6.06204 7.73201 6.04336C7.61876 6.01934 7.50088 6.03005 7.39383 6.07412C7.28678 6.11819 7.19552 6.19355 7.132 6.29034L5.69901 8.13335C5.61801 8.23335 5.537 8.33633 5.448 8.44933V8.44836Z" fill="#08931E"/>
</svg>
