<svg width="47" height="47" viewBox="0 0 47 47" fill="none" xmlns="http://www.w3.org/2000/svg">
<path d="M29.846 46.9999H16.161C14.0386 46.9999 11.937 46.5819 9.97623 45.7697C8.01542 44.9574 6.23379 43.7669 4.73309 42.2661C3.23239 40.7654 2.042 38.9837 1.22989 37.0228C0.417781 35.0619 -0.000131296 32.9603 3.0942e-08 30.8379V17.1529C3.0942e-08 12.8668 1.70268 8.75616 4.73346 5.72539C7.76423 2.69461 11.8748 0.991943 16.161 0.991943H27.125C32.1328 0.991943 36.9355 2.98129 40.4766 6.52235C44.0177 10.0634 46.007 14.8661 46.007 19.8739V30.8379C46.0071 32.9603 45.5892 35.0619 44.7771 37.0228C43.965 38.9837 42.7746 40.7654 41.2739 42.2661C39.7732 43.7669 37.9916 44.9574 36.0308 45.7697C34.07 46.5819 31.9684 46.9999 29.846 46.9999V46.9999Z" fill="url(#paint0_linear_42_3)"/>
<path d="M37.0209 16.9249L33.453 26.0849C33.4511 26.0904 33.4475 26.0952 33.4428 26.0986C33.438 26.102 33.4323 26.1039 33.4265 26.1039C33.4206 26.1039 33.4149 26.102 33.4102 26.0986C33.4054 26.0952 33.4019 26.0904 33.4 26.0849L30.329 17.9389C30.2114 17.6159 29.9915 17.3401 29.7026 17.1538C29.4137 16.9674 29.0717 16.8807 28.729 16.9069H28.004C28.004 16.9069 28.012 17.0449 28.004 16.9069H26.445C26.4405 16.9072 26.4361 16.9085 26.4323 16.9109C26.4284 16.9132 26.4252 16.9164 26.4228 16.9202C26.4205 16.924 26.4191 16.9283 26.4188 16.9328C26.4184 16.9373 26.4192 16.9418 26.421 16.9459L26.821 17.9369C27.4703 19.6442 28.137 21.4109 28.821 23.2369C29.505 25.0629 30.1746 26.8529 30.83 28.6069C30.9133 28.8177 31.0136 29.0214 31.13 29.2159C31.2733 29.4604 31.4478 29.6853 31.649 29.8849C31.8662 30.1027 32.1154 30.2862 32.388 30.4289C32.6972 30.5888 33.0398 30.6735 33.388 30.6759H33.416C33.7822 30.6814 34.144 30.5958 34.469 30.4269C34.7303 30.2914 34.9715 30.1205 35.186 29.9189C35.4042 29.7157 35.5891 29.4795 35.734 29.2189C35.8451 29.0214 35.9421 28.8162 36.024 28.6049C36.761 26.6699 37.444 24.9049 38.055 23.3469C38.3143 22.6802 38.569 22.0323 38.819 21.4029C39.069 20.7736 39.2933 20.1989 39.492 19.6789L39.9649 18.4399C40.0649 18.1789 40.126 18.0219 40.141 17.9869L40.666 16.9509C40.6682 16.9465 40.6692 16.9416 40.669 16.9366C40.6688 16.9317 40.6673 16.9269 40.6647 16.9226C40.6621 16.9184 40.6585 16.915 40.6541 16.9126C40.6498 16.9102 40.6449 16.9089 40.64 16.9089H37.045C37.0399 16.9093 37.035 16.9109 37.0308 16.9137C37.0266 16.9165 37.0232 16.9204 37.0209 16.9249V16.9249Z" fill="white"/>
<path d="M23.6 18.7701C22.3032 17.4716 20.5441 16.7408 18.709 16.738H18.628C17.7141 16.7363 16.8093 16.9193 15.968 17.2761C14.3025 17.9792 12.9757 19.3025 12.268 20.9661C11.9052 21.8116 11.721 22.723 11.727 23.6431C11.7172 25.0152 12.1151 26.3594 12.8704 27.505C13.6256 28.6507 14.704 29.5462 15.969 30.0781C16.8075 30.4337 17.7091 30.6166 18.62 30.6161H18.687C19.6006 30.6161 20.5052 30.4358 21.349 30.0857C22.1929 29.7356 22.9593 29.2224 23.6045 28.5756C24.2498 27.9288 24.7611 27.1611 25.1091 26.3164C25.4572 25.4717 25.6352 24.5666 25.633 23.653V23.653C25.64 22.729 25.4558 21.8135 25.092 20.9641C24.7398 20.1439 24.2333 19.399 23.6 18.7701V18.7701ZM22.068 25.0871C21.8774 25.5254 21.606 25.924 21.268 26.2621C20.9306 26.598 20.5299 26.8634 20.089 27.043C19.6386 27.237 19.1523 27.3335 18.662 27.3261H18.639C18.1579 27.327 17.6816 27.2304 17.239 27.042C16.804 26.8615 16.4085 26.5975 16.075 26.265C15.7369 25.9264 15.4655 25.5271 15.275 25.0881C15.0771 24.6362 14.9776 24.1473 14.983 23.654C14.9803 23.172 15.0798 22.6948 15.275 22.2541C15.4657 21.8158 15.7371 21.4172 16.075 21.0791C16.4097 20.7427 16.8072 20.4753 17.245 20.292C17.6878 20.1046 18.1641 20.0086 18.645 20.0101H18.677C19.1646 20.0098 19.6474 20.107 20.097 20.2961C20.5353 20.4748 20.9337 20.7389 21.269 21.0731C21.6071 21.4125 21.8784 21.8125 22.069 22.252C22.2643 22.6966 22.3628 23.1775 22.358 23.6631C22.3627 24.1536 22.2635 24.6396 22.067 25.0891L22.068 25.0871Z" fill="white"/>
<path d="M5.39404 21.0329L5.42603 30.6499C5.42589 30.6537 5.42654 30.6575 5.42795 30.6611C5.42936 30.6647 5.43148 30.668 5.4342 30.6707C5.43693 30.6734 5.44017 30.6755 5.44376 30.6769C5.44734 30.6783 5.45117 30.679 5.45502 30.6789H8.66602C8.67371 30.6789 8.68108 30.6758 8.68652 30.6704C8.69196 30.6649 8.69504 30.6575 8.69504 30.6499L8.66702 22.7699C8.66517 22.3022 8.47831 21.8542 8.14722 21.5239C7.81613 21.1935 7.36773 21.0076 6.90002 21.0069H5.42404C5.41667 21.0066 5.40944 21.0091 5.40387 21.0139C5.3983 21.0187 5.3948 21.0255 5.39404 21.0329V21.0329Z" fill="white"/>
<path d="M7.04404 20.0678C7.95531 20.0678 8.69404 19.3291 8.69404 18.4178C8.69404 17.5066 7.95531 16.7678 7.04404 16.7678C6.13277 16.7678 5.39404 17.5066 5.39404 18.4178C5.39404 19.3291 6.13277 20.0678 7.04404 20.0678Z" fill="white"/>
<defs>
<linearGradient id="paint0_linear_42_3" x1="-170.594" y1="413.868" x2="-170.594" y2="413.27" gradientUnits="userSpaceOnUse">
<stop stop-color="#3CCB51"/>
<stop offset="1" stop-color="#32D74B"/>
</linearGradient>
</defs>
</svg>
