<svg xmlns="http://www.w3.org/2000/svg" xmlns:xlink="http://www.w3.org/1999/xlink" width="270.21" height="77" viewBox="0 0 270.21 77">
  <defs>
    <linearGradient id="linear-gradient" x1="-3.708" y1="8.974" x2="-3.708" y2="8.961" gradientUnits="objectBoundingBox">
      <stop offset="0" stop-color="#3ccb51"/>
      <stop offset="1" stop-color="#32d74b"/>
    </linearGradient>
  </defs>
  <g id="Group_13852" data-name="Group 13852" transform="translate(-287 -78)">
    <path id="Rectangle_5492" data-name="Rectangle 5492" d="M336.952,155h-22.9A27.048,27.048,0,0,1,287,127.952v-22.9A27.048,27.048,0,0,1,314.048,78H332.4A31.6,31.6,0,0,1,364,109.6v18.35A27.048,27.048,0,0,1,336.952,155Z" fill="url(#linear-gradient)"/>
    <path id="Path_23077" data-name="Path 23077" d="M348.959,104.666,342.988,120a.048.048,0,0,1-.089,0l-5.14-13.634a2.636,2.636,0,0,0-2.682-1.728h-1.209s.013.231,0,0h-2.609a.048.048,0,0,0-.041.065l.672,1.658q1.63,4.285,3.355,8.876t3.362,8.988a6.986,6.986,0,0,0,.494,1.019,5.485,5.485,0,0,0,.869,1.12,5.069,5.069,0,0,0,1.237.91,3.7,3.7,0,0,0,1.675.414h.047a3.7,3.7,0,0,0,1.763-.417,5.343,5.343,0,0,0,1.2-.851,4.762,4.762,0,0,0,.917-1.176,7.964,7.964,0,0,0,.485-1.028c1.233-3.238,2.377-6.2,3.4-8.8q.651-1.673,1.278-3.254t1.126-2.885l.792-2.073c.167-.436.27-.7.295-.759l.878-1.734a.049.049,0,0,0-.043-.07l-6.016,0A.049.049,0,0,0,348.959,104.666Z" fill="#fff"/>
    <path id="Path_23078" data-name="Path 23078" d="M326.505,107.754a11.593,11.593,0,0,0-8.186-3.4h-.135a11.35,11.35,0,0,0-4.452.9,11.657,11.657,0,0,0-6.2,6.175,11.178,11.178,0,0,0-.9,4.48,11.593,11.593,0,0,0,7.1,10.77,11.345,11.345,0,0,0,4.437.9h.112A11.625,11.625,0,0,0,329.9,115.925h0a11.206,11.206,0,0,0-.9-4.5A11.656,11.656,0,0,0,326.505,107.754Zm-2.564,10.573a6.376,6.376,0,0,1-1.337,1.966,6.009,6.009,0,0,1-1.974,1.307,5.815,5.815,0,0,1-2.388.474H318.2a5.953,5.953,0,0,1-2.336-.475,6.039,6.039,0,0,1-1.948-1.3,6.387,6.387,0,0,1-1.339-1.97,5.825,5.825,0,0,1-.488-2.4,5.709,5.709,0,0,1,.489-2.346,6.387,6.387,0,0,1,1.335-1.966,6.068,6.068,0,0,1,1.958-1.318,5.965,5.965,0,0,1,2.339-.472h.053a6.123,6.123,0,0,1,2.377.478,5.977,5.977,0,0,1,1.961,1.3,6.408,6.408,0,0,1,1.34,1.974,5.728,5.728,0,0,1,.484,2.361,5.816,5.816,0,0,1-.487,2.387Z" fill="#fff"/>
    <g id="Group_13059" data-name="Group 13059">
      <path id="Path_23079" data-name="Path 23079" d="M296.028,111.542l.053,16.1a.047.047,0,0,0,.048.048H301.5a.049.049,0,0,0,.048-.048l-.047-13.189a2.962,2.962,0,0,0-2.958-2.951l-2.47,0A.049.049,0,0,0,296.028,111.542Z" fill="#fff"/>
      <circle id="Ellipse_1689" data-name="Ellipse 1689" cx="2.762" cy="2.762" r="2.762" transform="translate(296.028 104.404)" fill="#fff"/>
    </g>
    <path id="Union_79" data-name="Union 79" d="M55.409,1364.2c-.108,0-.218,0-.327,0a15.7,15.7,0,0,1-5.042-.83l-.006,0a10.14,10.14,0,0,1-3.914-2.525l-.014-.016a11.064,11.064,0,0,1-2.338-4.287,20.612,20.612,0,0,1-.762-5.935,24.577,24.577,0,0,1,.626-6.047,10.506,10.506,0,0,1,2.013-4.125l.012-.014a8.687,8.687,0,0,1,3.908-2.586,18.022,18.022,0,0,1,5.409-.83c.145,0,.292,0,.437.005s.292-.005.437-.005a18.006,18.006,0,0,1,5.4.829,8.688,8.688,0,0,1,3.911,2.587l.012.014a10.5,10.5,0,0,1,2.012,4.122,24.57,24.57,0,0,1,.627,6.05,20.6,20.6,0,0,1-.762,5.934,11.061,11.061,0,0,1-2.338,4.288l-.014.016a10.14,10.14,0,0,1-3.914,2.525l-.006,0a15.688,15.688,0,0,1-5.043.83C55.628,1364.207,55.518,1364.206,55.409,1364.2Zm0-3.381h.012c.094,0,.191,0,.285,0a12.513,12.513,0,0,0,3.811-.594,6.359,6.359,0,0,0,2.669-1.705,7.149,7.149,0,0,0,1.68-3.109,18.021,18.021,0,0,0,.562-4.8v-.02a22.678,22.678,0,0,0-.455-5,5.574,5.574,0,0,0-3.443-4.42,11.973,11.973,0,0,0-4.323-.8c-.254,0-.51.008-.763.024l-.032,0-.032,0c-.255-.016-.513-.024-.769-.024a11.98,11.98,0,0,0-4.325.8,5.571,5.571,0,0,0-3.443,4.418,22.7,22.7,0,0,0-.455,5.007v.02a18.024,18.024,0,0,0,.562,4.8,7.156,7.156,0,0,0,1.683,3.114,6.367,6.367,0,0,0,2.671,1.705,12.527,12.527,0,0,0,3.807.592c.094,0,.191,0,.285,0Zm135.941,3.381a1.727,1.727,0,0,1-.777-.184,1.44,1.44,0,0,1-.607-.57l-13.585-19.367v18.429a1.706,1.706,0,0,1-1.679,1.69h-.022a1.706,1.706,0,0,1-1.679-1.695v-23.8a1.67,1.67,0,0,1,.316-.979,1.8,1.8,0,0,1,.83-.642l.032-.011a1.688,1.688,0,0,1,1.054.025,1.66,1.66,0,0,1,.849.656l13.594,19.38V1338.7a1.706,1.706,0,0,1,1.679-1.69h.022a1.706,1.706,0,0,1,1.679,1.695v23.8a1.66,1.66,0,0,1-.317.978,1.786,1.786,0,0,1-.829.642l-.085.033h-.092a.527.527,0,0,0-.1.009,1.4,1.4,0,0,1-.275.029Zm-28.373,0h-.01a1.706,1.706,0,0,1-1.679-1.695v-23.8a1.706,1.706,0,0,1,1.678-1.69h.023a1.706,1.706,0,0,1,1.678,1.695v23.8a1.706,1.706,0,0,1-1.679,1.691Zm-11.715,0H134.582a1.706,1.706,0,0,1-1.679-1.695v-23.8a1.706,1.706,0,0,1,1.679-1.69h.022a1.706,1.706,0,0,1,1.679,1.695v22.113h14.986a1.691,1.691,0,0,1,0,3.381Zm-56.761,0a1.727,1.727,0,0,1-.777-.184,1.448,1.448,0,0,1-.607-.57l-13.585-19.367v18.429a1.706,1.706,0,0,1-1.679,1.69h-.022a1.706,1.706,0,0,1-1.679-1.695v-23.8a1.67,1.67,0,0,1,.316-.979,1.8,1.8,0,0,1,.83-.642l.032-.011a1.685,1.685,0,0,1,1.055.026,1.662,1.662,0,0,1,.848.655l13.585,19.379V1338.7a1.706,1.706,0,0,1,1.679-1.69h.022a1.706,1.706,0,0,1,1.678,1.695v23.8a1.664,1.664,0,0,1-.315.978,1.793,1.793,0,0,1-.83.642l-.086.033h-.092a.506.506,0,0,0-.1.009,1.411,1.411,0,0,1-.257.029Zm108.57,0h-.011a1.706,1.706,0,0,1-1.679-1.695v-23.8a1.706,1.706,0,0,1,1.679-1.69h.022a1.706,1.706,0,0,1,1.679,1.695v9.394l13.929-10.725a1.745,1.745,0,0,1,1.253-.343,1.638,1.638,0,0,1,1.12.617l0,.005a1.719,1.719,0,0,1,.341,1.249,1.639,1.639,0,0,1-.617,1.121l-13.772,10.579,13.766,10.578a1.638,1.638,0,0,1,.62,1.118,1.716,1.716,0,0,1-.332,1.238,1.392,1.392,0,0,1-.617.5,1.77,1.77,0,0,1-1.237.076,1.609,1.609,0,0,1-.536-.286l-13.92-10.721v9.4a1.706,1.706,0,0,1-1.679,1.69Zm-80.189,0H106.2a1.706,1.706,0,0,1-1.679-1.695v-23.8a1.706,1.706,0,0,1,1.679-1.69h16.688a1.69,1.69,0,0,1,0,3.38H107.906v8.523h12.6a1.69,1.69,0,0,1,0,3.379h-12.6v8.523h14.986a1.69,1.69,0,0,1,0,3.38Z" transform="translate(335.795 -1233.823)" fill="#636366"/>
  </g>
</svg>
