<svg xmlns="http://www.w3.org/2000/svg" width="358.121" height="102.811" viewBox="0 0 358.121 102.811">
  <g id="Group_13760" data-name="Group 13760" transform="translate(-128.19 -11.521)">
    <path id="Exclusion_13" data-name="Exclusion 13" d="M66.049,101.811H35.764A35.763,35.763,0,0,1,0,66.049V35.764A35.765,35.765,0,0,1,35.764,0H60.026a41.75,41.75,0,0,1,41.785,41.785V66.049a35.761,35.761,0,0,1-35.762,35.762ZM58.522,35.218a.062.062,0,0,0-.05.029.062.062,0,0,0-.005.057l.888,2.191c1.5,3.936,2.991,7.884,4.437,11.737,1.513,4.03,3.009,8.028,4.445,11.884a9.285,9.285,0,0,0,.653,1.348,7.25,7.25,0,0,0,1.149,1.48,6.59,6.59,0,0,0,1.635,1.2,4.9,4.9,0,0,0,2.215.548h.134a4.924,4.924,0,0,0,2.26-.552,6.965,6.965,0,0,0,1.585-1.125,6.277,6.277,0,0,0,1.213-1.553,10.5,10.5,0,0,0,.641-1.36c1.664-4.37,3.177-8.284,4.5-11.635.615-1.581,1.169-2.989,1.691-4.3.542-1.369,1.042-2.653,1.488-3.816l1.048-2.74c.221-.577.356-.926.39-1L90,35.314a.065.065,0,0,0-.058-.092l-7.955,0a.067.067,0,0,0-.06.04L74.029,55.529a.063.063,0,0,1-.118,0L67.116,37.5a3.472,3.472,0,0,0-3.547-2.284H58.522ZM12,44.286a.065.065,0,0,0-.064.064l.07,21.281a.063.063,0,0,0,.064.064h7.106a.065.065,0,0,0,.064-.064l-.064-17.439a3.923,3.923,0,0,0-3.91-3.9Zm29.2-9.44a14.906,14.906,0,0,0-5.858,1.191,15.339,15.339,0,0,0-8.2,8.164,14.688,14.688,0,0,0-1.195,5.923A15.284,15.284,0,0,0,35.34,64.366a14.918,14.918,0,0,0,5.853,1.189h.162A15.372,15.372,0,0,0,56.726,50.145a14.726,14.726,0,0,0-1.2-5.949,15.425,15.425,0,0,0-14.117-9.351H41.2Zm-25.613.066a3.652,3.652,0,1,0,3.651,3.653A3.657,3.657,0,0,0,15.591,34.911ZM41.424,58.276h-.18a7.827,7.827,0,0,1-3.074-.627,7.957,7.957,0,0,1-2.575-1.719,8.392,8.392,0,0,1-1.771-2.605,7.644,7.644,0,0,1-.645-3.173,7.49,7.49,0,0,1,.645-3.1,8.407,8.407,0,0,1,1.767-2.6,7.958,7.958,0,0,1,2.589-1.743,7.808,7.808,0,0,1,3.062-.623h.116a8.036,8.036,0,0,1,3.128.631,7.839,7.839,0,0,1,2.591,1.719,8.43,8.43,0,0,1,1.773,2.611,8,8,0,0,1,0,6.278,8.38,8.38,0,0,1-1.769,2.6,7.931,7.931,0,0,1-2.609,1.729A7.675,7.675,0,0,1,41.424,58.276Z" transform="translate(128.69 12.021)" fill="#fff" stroke="rgba(0,0,0,0)" stroke-miterlimit="10" stroke-width="1"/>
    <path id="Path_23104" data-name="Path 23104" d="M395.042,138.323a20.143,20.143,0,0,1-6.886-1.058,12.688,12.688,0,0,1-4.919-3.173,13.89,13.89,0,0,1-2.951-5.411,26.6,26.6,0,0,1-.984-7.669,31.831,31.831,0,0,1,.812-7.845,13.144,13.144,0,0,1,2.533-5.19,10.829,10.829,0,0,1,4.87-3.222,27.3,27.3,0,0,1,15.052,0,10.829,10.829,0,0,1,4.87,3.222,13.144,13.144,0,0,1,2.533,5.19,31.828,31.828,0,0,1,.812,7.845,26.6,26.6,0,0,1-.984,7.669,13.89,13.89,0,0,1-2.951,5.411,12.687,12.687,0,0,1-4.919,3.173A20.126,20.126,0,0,1,395.042,138.323Zm0-31.48a16.561,16.561,0,0,0-7.034,1.082,9.979,9.979,0,0,0-3,2.112l-.008.009a9.926,9.926,0,0,0-1.938,4.2,30.643,30.643,0,0,0-.615,6.763,24.454,24.454,0,0,0,.763,6.517,10.093,10.093,0,0,0,2.38,4.4,9.056,9.056,0,0,0,3.812,2.434,19.937,19.937,0,0,0,11.263,0,9.056,9.056,0,0,0,3.812-2.434,10.093,10.093,0,0,0,2.38-4.4,24.454,24.454,0,0,0,.763-6.517,30.65,30.65,0,0,0-.615-6.763,9.912,9.912,0,0,0-1.938-4.2l-.008-.009a9.98,9.98,0,0,0-3-2.112A16.557,16.557,0,0,0,395.042,106.844Zm51.69,31.48a1.622,1.622,0,0,1-.738-.172,1.26,1.26,0,0,1-.541-.517l-19.068-27.184a.063.063,0,0,0-.115.037v26.261a1.573,1.573,0,0,1-3.147,0v-31.48a1.55,1.55,0,0,1,.295-.91,1.718,1.718,0,0,1,.793-.615,1.555,1.555,0,0,1,.984.025,1.532,1.532,0,0,1,.793.615l19.055,27.182a.063.063,0,0,0,.115-.036V105.269a1.573,1.573,0,0,1,3.147,0v31.48a1.549,1.549,0,0,1-.295.91,1.718,1.718,0,0,1-.793.615,1.368,1.368,0,0,0-.264.025A1.133,1.133,0,0,1,446.731,138.323Zm37.523-3.148h-20.4a.063.063,0,0,1-.063-.063V122.647a.063.063,0,0,1,.063-.063h17.25a1.573,1.573,0,0,0,0-3.147h-17.25a.063.063,0,0,1-.063-.063V106.909a.063.063,0,0,1,.063-.063h20.4a1.573,1.573,0,0,0,0-3.147H462.219a1.594,1.594,0,0,0-1.573,1.573v31.477a1.594,1.594,0,0,0,1.573,1.573h22.036a1.574,1.574,0,0,0,0-3.147Zm37.523,3.148H499.741a1.594,1.594,0,0,1-1.574-1.573V105.269a1.574,1.574,0,0,1,3.147,0v29.843a.063.063,0,0,0,.063.063h20.4a1.574,1.574,0,0,1,0,3.148Zm15.487,0a1.594,1.594,0,0,1-1.573-1.573V105.269a1.574,1.574,0,0,1,3.147,0v31.48a1.6,1.6,0,0,1-1.573,1.575Zm37.523,0a1.623,1.623,0,0,1-.738-.172,1.26,1.26,0,0,1-.541-.517l-19.068-27.184a.063.063,0,0,0-.115.037v26.261a1.574,1.574,0,0,1-3.147,0v-31.48a1.55,1.55,0,0,1,.295-.91,1.719,1.719,0,0,1,.793-.615,1.555,1.555,0,0,1,.984.025,1.528,1.528,0,0,1,.793.615l19.068,27.184a.063.063,0,0,0,.115-.037V105.269a1.574,1.574,0,0,1,3.147,0v31.48a1.551,1.551,0,0,1-.295.91,1.719,1.719,0,0,1-.793.615,1.369,1.369,0,0,0-.265.025A1.153,1.153,0,0,1,574.789,138.323Zm38.507-2.8-18.818-14.46a.063.063,0,0,1,0-.1L613.3,106.5a1.493,1.493,0,0,0,.566-1.033,1.622,1.622,0,0,0-.32-1.181,1.493,1.493,0,0,0-1.033-.566,1.623,1.623,0,0,0-1.181.32l-19.38,14.923a.063.063,0,0,1-.1-.05V105.269a1.573,1.573,0,0,0-3.147,0v31.48a1.573,1.573,0,0,0,3.147,0V123.106a.063.063,0,0,1,.1-.05l19.376,14.923a1.456,1.456,0,0,0,.492.264,1.68,1.68,0,0,0,.492.074,1.72,1.72,0,0,0,.689-.148,1.2,1.2,0,0,0,.541-.443,1.622,1.622,0,0,0,.32-1.181A1.49,1.49,0,0,0,613.3,135.519Z" transform="translate(-128.569 -57.705)" fill="#fff" stroke="#fff" stroke-width="2"/>
  </g>
</svg>
