<svg width="20" height="19" viewBox="0 0 20 19" fill="none" xmlns="http://www.w3.org/2000/svg">
<path d="M18.2531 3.12138C15.8811 3.13038 13.5091 3.12138 11.1381 3.12138H10.9051V2.91337C10.9051 2.41337 10.9051 1.91337 10.9051 1.41337C10.9094 1.32387 10.8928 1.2345 10.8566 1.15251C10.8205 1.07051 10.7658 0.998058 10.6969 0.940836C10.6279 0.883614 10.5466 0.843192 10.4593 0.822794C10.372 0.802396 10.2813 0.80256 10.1941 0.823282L0.98811 2.54838C0.839461 2.56763 0.703691 2.64275 0.608411 2.75846C0.513131 2.87417 0.465485 3.02172 0.47511 3.1713C0.47511 7.38997 0.47511 11.6086 0.47511 15.8273C0.465439 15.9769 0.512929 16.1245 0.607983 16.2404C0.703038 16.3562 0.838522 16.4316 0.987073 16.4513L9.12611 17.9764L10.1741 18.1763C10.2623 18.1994 10.3548 18.2016 10.4439 18.1824C10.5331 18.1633 10.6165 18.1234 10.6875 18.0661C10.7584 18.0088 10.8148 17.9356 10.8523 17.8525C10.8898 17.7693 10.9072 17.6784 10.9031 17.5873C10.9081 17.0263 10.9031 16.4654 10.9031 15.8764H11.1181C13.5021 15.8764 15.8861 15.8764 18.2701 15.8764C18.4257 15.896 18.5835 15.8635 18.7187 15.7839C18.8539 15.7042 18.9588 15.582 19.0171 15.4363V3.55631C18.9553 3.40992 18.8469 3.28802 18.7088 3.20939C18.5707 3.13076 18.4105 3.09984 18.2531 3.12138ZM3.52211 9.72135C3.28148 9.8983 2.98611 9.98472 2.68806 9.96537H1.99507V11.1653H1.30409V7.83329H2.73207C3.01751 7.81832 3.29836 7.90999 3.52009 8.09037C3.62501 8.19382 3.70578 8.31914 3.7566 8.45744C3.80743 8.59574 3.82706 8.74353 3.8141 8.8903C3.8296 9.04232 3.81116 9.19596 3.76014 9.34001C3.70913 9.48405 3.62684 9.61492 3.51912 9.72331L3.52211 9.72135ZM6.92207 10.5403C6.81338 10.7384 6.65099 10.9018 6.45356 11.0116C6.25614 11.1215 6.03172 11.1733 5.8061 11.1613H4.37208V7.83329H5.8061C5.9804 7.83154 6.15399 7.85583 6.32112 7.90531C6.5514 7.97978 6.75064 8.1281 6.88807 8.32731C7.00213 8.48869 7.08272 8.67127 7.12507 8.8643C7.16584 9.04516 7.18695 9.22992 7.18806 9.41532C7.2004 9.80856 7.10755 10.198 6.91908 10.5434L6.92207 10.5403ZM10.0821 8.42338H8.4001V9.18839H9.8741V9.7664H8.4001V11.1613H7.70912V7.8394H10.0811L10.0821 8.42338ZM10.9131 4.29435H17.8491V12.3514L16.7761 11.8053C16.7342 11.7792 16.6882 11.7602 16.6401 11.7493C16.1961 11.6953 15.9971 11.3953 15.8181 11.0193C15.3041 9.93533 14.7601 8.86538 14.2181 7.79338C14.189 7.73992 14.1754 7.67944 14.1788 7.61869C14.1821 7.55794 14.2023 7.49932 14.2371 7.44938C14.4841 7.0365 14.6917 6.60119 14.8571 6.14933C14.9116 6.00629 14.9293 5.85191 14.9087 5.70024C14.8881 5.54856 14.8297 5.40445 14.739 5.28117C14.6482 5.15789 14.528 5.05933 14.3893 4.99455C14.2506 4.92976 14.0979 4.90079 13.9451 4.91032C13.7605 4.90684 13.5805 4.96846 13.4368 5.08439C13.2931 5.20032 13.1947 5.36318 13.1591 5.54435C13.0852 5.94662 13.1061 6.36055 13.2201 6.75334C13.2567 6.94634 13.3102 7.13578 13.3801 7.31938C13.4174 7.39684 13.4306 7.48371 13.418 7.56877C13.4053 7.65382 13.3674 7.73307 13.3091 7.7963C12.5221 8.8473 11.7431 9.90439 10.9601 10.9594C10.9431 10.9815 10.9247 11.0026 10.9051 11.0224L10.9131 4.29435ZM17.6801 13.2944C17.0801 13.2394 16.8251 12.8113 16.5361 12.3943C17.0791 12.4803 17.6511 12.9174 17.6801 13.2934V13.2944ZM13.7671 8.23234L15.3511 11.4134C14.0392 11.2296 12.7077 11.2342 11.3971 11.4273L13.7671 8.23234ZM13.9971 5.50529C14.0448 5.50577 14.0918 5.51702 14.1346 5.538C14.1774 5.55898 14.215 5.58924 14.2446 5.62663C14.2743 5.66401 14.2952 5.70757 14.3058 5.75407C14.3164 5.80057 14.3165 5.84876 14.3061 5.8953C14.2497 6.24647 14.1176 6.58126 13.9191 6.87638H13.8351C13.7961 6.53238 13.7351 6.1894 13.7241 5.8444C13.7131 5.5894 13.8191 5.49031 13.9971 5.50431V5.50529ZM17.8491 14.7323H10.9131V12.1083C11.2591 12.0563 11.6061 11.9964 11.9561 11.9594C12.9404 11.8392 13.9358 11.8392 14.9201 11.9594C15.1496 11.988 15.3773 12.0298 15.6021 12.0844C15.6812 12.1179 15.7456 12.179 15.7831 12.2564C15.995 12.7015 16.2811 13.1072 16.6291 13.4563C16.7835 13.6187 16.9758 13.7402 17.1887 13.81C17.4016 13.8798 17.6285 13.8958 17.8491 13.8564V14.7323Z" fill="#FA3A00"/>
</svg>
